<svg width="24" height="24" viewBox="0 0 24 24" fill="none" xmlns="http://www.w3.org/2000/svg">
<path d="M12 12C13.1046 12 14 11.1046 14 10C14 8.89543 13.1046 8 12 8C10.8954 8 10 8.89543 10 10C10 11.1046 10.8954 12 12 12Z" fill="#222222"/>
<path fill-rule="evenodd" clip-rule="evenodd" d="M13.6725 20.4446C15.288 17.9658 17.5465 14.4445 17.9656 13.5C18.68 12 19.0422 10.9165 18.9943 9.7198C18.9464 8.52306 18.5922 7.35864 17.9656 6.33792C17.339 5.31719 16.461 4.47431 15.4156 3.8899C14.3701 3.30548 13.1922 2.99908 11.9945 3C10.7968 3.00092 9.6194 3.30914 8.57486 3.89516C7.53033 4.48119 6.65363 5.32542 6.02862 6.34711C5.40361 7.36879 5.0512 8.53376 5.0051 9.73057C4.959 10.9274 5.16415 12 5.99999 13.5C6.52506 14.4423 8.75601 17.9496 10.3424 20.4275C11.1201 21.6422 12.885 21.653 13.6725 20.4446ZM16.1599 12.64L16.1484 12.6643L16.1375 12.6888C15.9993 13.0001 15.424 13.9753 14.5724 15.3357C13.7685 16.62 12.8151 18.097 12.0131 19.3278C10.4039 16.8142 8.23223 13.3972 7.74706 12.5265C7.07886 11.3273 6.97248 10.6159 7.00362 9.80755C7.03655 8.95268 7.28827 8.12057 7.7347 7.39079C8.18114 6.66101 8.80735 6.05799 9.55345 5.6394C10.2995 5.22081 11.1406 5.00066 11.9961 5C12.8516 4.99934 13.6929 5.2182 14.4397 5.63564C15.1864 6.05308 15.8135 6.65514 16.2611 7.38423C16.7087 8.11331 16.9617 8.94504 16.9959 9.79985C17.0238 10.4953 16.8387 11.2147 16.1599 12.64Z" fill="#222222"/>
</svg>
