<svg width="24" height="24" viewBox="0 0 24 24" fill="none" xmlns="http://www.w3.org/2000/svg">
<path d="M10 10C10.5523 10 11 10.4477 11 11V16C11 16.5523 10.5523 17 10 17C9.44772 17 9 16.5523 9 16V11C9 10.4477 9.44772 10 10 10Z" fill="#222222"/>
<path d="M15 11C15 10.4477 14.5523 10 14 10C13.4477 10 13 10.4477 13 11V16C13 16.5523 13.4477 17 14 17C14.5523 17 15 16.5523 15 16V11Z" fill="#222222"/>
<path fill-rule="evenodd" clip-rule="evenodd" d="M7 6C7 4.34315 8.34315 3 10 3H14C15.6569 3 17 4.34315 17 6H20C20.5523 6 21 6.44772 21 7C21 7.55228 20.5523 8 20 8H19V18C19 19.6569 17.6569 21 16 21H8C6.34315 21 5 19.6569 5 18V8H4C3.44772 8 3 7.55228 3 7C3 6.44772 3.44772 6 4 6H7ZM9 6C9 5.44772 9.44772 5 10 5H14C14.5523 5 15 5.44772 15 6H9ZM7 8H17V18C17 18.5523 16.5523 19 16 19H8C7.44772 19 7 18.5523 7 18V8Z" fill="#222222"/>
</svg>
