<svg width="24" height="24" viewBox="0 0 24 24" fill="none" xmlns="http://www.w3.org/2000/svg">
<path fill-rule="evenodd" clip-rule="evenodd" d="M11.9996 3.1001C12.363 3.1001 12.6907 3.31856 12.8304 3.65394L15.0996 9.1001H19.9996C20.3637 9.1001 20.6918 9.31938 20.8311 9.65568C20.9704 9.99199 20.8934 10.3791 20.636 10.6365L16.9635 14.309L17.8874 19.8521C17.9451 20.1983 17.7963 20.5465 17.5062 20.744C17.216 20.9416 16.8376 20.9524 16.5366 20.7718L11.9996 18.0497L7.46268 20.7718C7.16172 20.9524 6.78324 20.9416 6.49312 20.744C6.203 20.5465 6.05418 20.1983 6.11188 19.8521L7.03574 14.309L3.36324 10.6365C3.10584 10.3791 3.02884 9.99199 3.16814 9.65568C3.30745 9.31938 3.63562 9.1001 3.99964 9.1001H8.89964L11.1689 3.65394C11.3086 3.31856 11.6363 3.1001 11.9996 3.1001ZM11.9996 6.3401L10.3304 10.3463C10.1907 10.6816 9.86297 10.9001 9.49964 10.9001H6.17243L8.63603 13.3637C8.84156 13.5692 8.93517 13.8614 8.88739 14.1481L8.20779 18.2256L11.5366 16.2284C11.8216 16.0573 12.1777 16.0573 12.4627 16.2284L15.7915 18.2256L15.1119 14.1481C15.0641 13.8614 15.1577 13.5692 15.3632 13.3637L17.8268 10.9001H14.4996C14.1363 10.9001 13.8086 10.6816 13.6689 10.3463L11.9996 6.3401Z" fill="#222222"/>
</svg>
